<?xml version="1.0"?>
<!-- Generated by SVGo -->
<svg width="1450" height="800"
     xmlns="http://www.w3.org/2000/svg"
     xmlns:xlink="http://www.w3.org/1999/xlink">
<g font-family="&quot;Helvetica Neue&quot;,Helvetica,Arial,sans-serif" font-size="13px"> >
<g transform="translate(1307,62)">
<rect x="0" y="0" width="128" height="46" rx="15" ry="15" fill="rgb(252, 237, 190)" opacity="0.8" stroke="rgb(250,216,120)" stroke-opacity="0.7" stroke-width="5px" />
</g>
<text x="1312" y="77" >Stream Aligned</text>
<text x="1312" y="97" >Team</text>
<g transform="translate(1307,140)">
<rect x="0" y="0" width="128" height="47" fill="rgb(170, 185, 215)" opacity="0.8" stroke="rgb(119,159,229)" stroke-opacity="0.7" stroke-width="5px" />
</g>
<text x="1312" y="155" >Platform</text>
<text x="1312" y="175" >Team</text>
<g transform="translate(1307,217)">
<rect x="0" y="0" width="128" height="46" rx="35" ry="35" fill="rgb(236, 210, 177)" opacity="0.8" stroke="rgb(210,149,84)" stroke-opacity="0.7" stroke-width="5px" />
</g>
<text x="1318" y="232" >Complicated</text>
<text x="1318" y="252" >Subsystem</text>
<g transform="translate(1307,295)">
<rect x="0" y="0" width="128" height="47" rx="15" ry="15" fill="rgb(217, 190, 206)" opacity="0.8" stroke="rgb(200,159,182)" stroke-opacity="0.7" stroke-width="5px" />
</g>
<text x="1318" y="310" >Enabling</text>
<text x="1318" y="330" >Team</text>
<line x1="1307" y1="372" x2="1435" y2="372" stroke="grey" stroke-width="1" />
<line x1="1307" y1="372" x2="1435" y2="372" stroke-dasharray="15 10" stroke="rgb(250,216,120)" stroke-width="10" />
<text x="1312" y="392" >collaboration</text>
<line x1="1307" y1="411" x2="1435" y2="411" stroke="grey" stroke-width="1" />
<line x1="1307" y1="411" x2="1435" y2="411" stroke-dasharray="8 8" stroke="rgb(200,159,182)" stroke-width="10" />
<text x="1312" y="431" >facilitating</text>
<line x1="1307" y1="450" x2="1435" y2="450" stroke="grey" stroke-width="1" />
<line x1="1307" y1="450" x2="1435" y2="450" stroke-dasharray="2 8" stroke="black" stroke-width="10" />
<text x="1312" y="470" >xAsAService</text>
<g transform="translate(1336,543)">
<text x="0" y="0" ></text>
<circle cx="0" cy="0" r="20" fill="#D6D6D6" stroke="#000000" />
<circle cx="0" cy="0" r="5" stroke-width="1" stroke="black" fill="white" />
</g>
<text x="1362" y="550" >build</text>
<g transform="translate(1336,597)">
<text x="0" y="0" ></text>
<circle cx="0" cy="0" r="20" fill="#444444" stroke="#444444" />
<circle cx="0" cy="0" r="5" stroke-width="1" stroke="black" fill="white" />
</g>
<text x="1362" y="604" >outsource</text>
<g transform="translate(1336,651)">
<text x="0" y="0" ></text>
<circle cx="0" cy="0" r="20" fill="#AAA5A9" stroke="#D6D6D6" />
<circle cx="0" cy="0" r="5" stroke-width="1" stroke="black" fill="white" />
</g>
<text x="1362" y="658" >buy</text>
</g>
<rect x="0" y="0" width="1300" height="800" style="fill:white" />
<defs>
<linearGradient id="wardleyGradient" x1="0%" y1="0%" x2="100%" y2="0%">
<stop offset="0%" stop-color="rgb(196,196,196)" stop-opacity="1.00"/>
<stop offset="30%" stop-color="rgb(255,255,255)" stop-opacity="1.00"/>
<stop offset="70%" stop-color="rgb(255,255,255)" stop-opacity="1.00"/>
<stop offset="100%" stop-color="rgb(196,196,196)" stop-opacity="1.00"/>
</linearGradient>
<marker id="arrow" refX="15" refY="0" markerWidth="12" markerHeight="12" viewBox="0 -5 10 10" >
<path d="M0,-5L10,0L0,5" style="fill:red" />
</marker>
<marker id="graphArrow" refX="9" refY="0" markerWidth="12" markerHeight="12" viewBox="0 -5 10 10" >
<path d="M0,-5L10,0L0,5" style="fill:black" />
</marker>
</defs>
<rect x="25" y="0" width="1275" height="770" style="fill:url(#wardleyGradient)" />
<g transform="translate(0,800) rotate(270)">
<g font-family="&quot;Helvetica Neue&quot;,Helvetica,Arial,sans-serif" font-size="13px"> >
<line x1="30" y1="25" x2="800" y2="25" stroke="black" stroke-width="1" marker-end="url(#graphArrow)" />
<line x1="800" y1="251" x2="30" y2="251" stroke="#b8b8b8" stroke-dasharray="2,2" />
<line x1="800" y1="545" x2="30" y2="545" stroke="#b8b8b8" stroke-dasharray="2,2" />
<line x1="800" y1="935" x2="30" y2="935" stroke="#b8b8b8" stroke-dasharray="2,2" />
<text x="40" y="15" text-anchor="start" >Invisible</text>
<text x="760" y="15" text-anchor="end" >Visible</text>
<text x="430" y="15" text-anchor="middle" font-weight="bold" >Value Chain</text>
</g>
</g>
<line x1="25" y1="770" x2="1300" y2="770" stroke="black" stroke-width="1" marker-end="url(#graphArrow)" />
<g font-family="&quot;Helvetica Neue&quot;,Helvetica,Arial,sans-serif" font-size="13px" font-style="italic" >
<text x="35" y="15" font-style="normal" font-size="11px" font-weight="bold" >Uncharted</text>
<text x="1280" y="15" font-style="normal" font-size="11px" font-weight="bold" text-anchor="end" >Industrialised</text>
<text x="30" y="785" >Gensesis</text>
<text x="355" y="785" >Custom-Build</text>
<text x="680" y="785" >Product</text>
<text x="680" y="797" >(+rental)</text>
<text x="1005" y="785" >Commodity</text>
<text x="1005" y="797" >(+utility)</text>
<text x="1300" y="790" text-anchor="end" font-weight="bold" font-style="normal" >Evolution</text>
</g>
<g font-family="Consolas, Lucida Console, monospace" font-weight="14px" font-size="13px" >
<title>Tea Shop</title>
<g id="teamtopologies">
<g transform="translate(751,124)">
<rect x="0" y="0" width="141" height="78" rx="15" ry="15" fill="rgb(252, 237, 190)" opacity="0.8" stroke="rgb(250,216,120)" stroke-opacity="0.7" stroke-width="5px" />
</g>
<g transform="translate(318,372)">
<rect x="0" y="0" width="255" height="155" rx="15" ry="15" fill="rgb(217, 190, 206)" opacity="0.8" stroke="rgb(200,159,182)" stroke-opacity="0.7" stroke-width="5px" />
</g>
<g transform="translate(802,636)">
<rect x="0" y="0" width="421" height="124" fill="rgb(170, 185, 215)" opacity="0.8" stroke="rgb(119,159,229)" stroke-opacity="0.7" stroke-width="5px" />
</g>
<g transform="translate(955,132)">
<rect x="0" y="0" width="217" height="295" rx="35" ry="35" fill="rgb(236, 210, 177)" opacity="0.8" stroke="rgb(210,149,84)" stroke-opacity="0.7" stroke-width="5px" />
</g>
</g>
<g id="links">
<line x1="1019" y1="39" x2="802" y2="163" stroke="grey" stroke-width="1" />
<line x1="802" y1="163" x2="1057" y2="287" stroke="grey" stroke-width="1" />
<line x1="802" y1="163" x2="1057" y2="287" stroke-dasharray="15 10" stroke="rgb(250,216,120)" stroke-width="10" />
<line x1="802" y1="163" x2="1045" y2="372" stroke="grey" stroke-width="1" />
<line x1="802" y1="163" x2="1045" y2="372" stroke-dasharray="15 10" stroke="rgb(250,216,120)" stroke-width="10" />
<line x1="802" y1="163" x2="1019" y2="210" stroke="grey" stroke-width="1" />
<line x1="802" y1="163" x2="1019" y2="210" stroke-dasharray="15 10" stroke="rgb(250,216,120)" stroke-width="10" />
<line x1="917" y1="698" x2="1159" y2="698" stroke-dasharray="5 5" stroke="red" stroke-width="1" marker-end="url(#arrow)" />
<line x1="815" y1="442" x2="917" y2="698" stroke="red" stroke-width="1" />
<line x1="815" y1="442" x2="1159" y2="698" stroke="red" stroke-width="1" />
<line x1="828" y1="39" x2="802" y2="163" stroke="grey" stroke-width="1" />
<line x1="1045" y1="372" x2="1070" y2="481" stroke="grey" stroke-width="1" />
<line x1="1045" y1="372" x2="471" y2="442" stroke="grey" stroke-width="1" />
<line x1="1045" y1="372" x2="471" y2="442" stroke-dasharray="8 8" stroke="rgb(200,159,182)" stroke-width="10" />
<line x1="1045" y1="372" x2="815" y2="442" stroke="red" stroke-width="1" />
<line x1="471" y1="442" x2="917" y2="698" stroke="grey" stroke-width="1" />
<line x1="471" y1="442" x2="917" y2="698" stroke-dasharray="2 8" stroke="black" stroke-width="10" />
<line x1="471" y1="442" x2="1159" y2="698" stroke="red" stroke-width="1" />
<line x1="471" y1="442" x2="815" y2="442" stroke-dasharray="5 5" stroke="red" stroke-width="1" marker-end="url(#arrow)" />
</g>
<g id="components">
<g transform="translate(815,442)">
<text x="22" y="9" fill="red" >Kettle</text>
<circle cx="0" cy="0" r="20" fill="#AAA5A9" stroke="#D6D6D6" />
<circle cx="0" cy="0" r="5" stroke-width="1" stroke="red" fill="white" />
</g>
<g transform="translate(1019,210)">
<text x="10" y="10" >Cup</text>
<circle cx="0" cy="0" r="5" stroke-width="1" stroke="black" fill="white" />
</g>
<g transform="translate(1045,372)">
<text x="10" y="10" >Hot Water</text>
<circle cx="0" cy="0" r="5" stroke-width="1" stroke="black" fill="white" />
</g>
<g transform="translate(1070,481)">
<text x="10" y="10" >Water</text>
<circle cx="0" cy="0" r="5" stroke-width="1" stroke="black" fill="white" />
</g>
<g transform="translate(828,39)">
<text x="0" y="0" font-weight="14px" font-size="14px" text-anchor="middle" >Business</text>
</g>
<g transform="translate(471,442)">
<text x="-73" y="4" >Kettle</text>
<circle cx="0" cy="0" r="20" fill="#D6D6D6" stroke="#000000" />
<circle cx="0" cy="0" r="5" stroke-width="1" stroke="black" fill="white" />
</g>
<g transform="translate(1057,287)">
<text x="10" y="10" >Tea</text>
<circle cx="0" cy="0" r="5" stroke-width="1" stroke="black" fill="white" />
</g>
<g transform="translate(802,163)">
<text x="19" y="-4" >Cup of Tea</text>
<circle cx="0" cy="0" r="5" stroke-width="1" stroke="black" fill="white" />
</g>
<g transform="translate(917,698)">
<text x="-29" y="30" >Power</text>
<circle cx="0" cy="0" r="20" fill="#444444" stroke="#444444" />
<circle cx="0" cy="0" r="5" stroke-width="1" stroke="black" fill="white" />
</g>
<g transform="translate(1159,698)">
<text x="-12" y="21" fill="red" >Power</text>
<circle cx="0" cy="0" r="5" stroke-width="1" stroke="red" fill="white" />
</g>
<g transform="translate(1019,39)">
<text x="0" y="0" font-weight="14px" font-size="14px" text-anchor="middle" >Public</text>
</g>
</g>
<g id="annotations">
<g transform="translate(649,442)">
<circle cx="0" cy="0" r="15" fill="white" stroke="#595959" stroke-width="2" />
<text x="0" y="5" font-weight="14px" font-size="14px" text-anchor="middle" >1</text>
</g>
<g transform="translate(1032,713)">
<circle cx="0" cy="0" r="15" fill="white" stroke="#595959" stroke-width="2" />
<text x="0" y="5" font-weight="14px" font-size="14px" text-anchor="middle" >1</text>
</g>
<g transform="translate(1108,403)">
<circle cx="0" cy="0" r="15" fill="white" stroke="#595959" stroke-width="2" />
<text x="0" y="5" font-weight="14px" font-size="14px" text-anchor="middle" >2</text>
</g>
<g transform="translate(50,310)">
<rect x="-14" y="-14" width="459" height="57" stroke="#595959" stroke-width="1" fill="#FFFFFF" />
<text x="0" y="0" text-decoration="underline" >Annotations:</text>
<text x="0" y="18" > 1. Standardising power allows Kettles to evolve faster</text>
<text x="0" y="36" > 2. Hot water is obvious and well known</text>
</g>
</g>
</g>
</svg>
