<?xml version="1.0"?>
<!-- Generated by SVGo -->
<svg width="1000" height="700"
     xmlns="http://www.w3.org/2000/svg"
     xmlns:xlink="http://www.w3.org/1999/xlink">
<title>Wardley</title>
<rect x="0" y="0" width="1000" height="700" style="fill:white" />
<defs>
<linearGradient id="wardleyGradient" x1="0%" y1="0%" x2="100%" y2="0%">
<stop offset="0%" stop-color="rgb(196,196,196)" stop-opacity="1.00"/>
<stop offset="30%" stop-color="rgb(255,255,255)" stop-opacity="1.00"/>
<stop offset="70%" stop-color="rgb(255,255,255)" stop-opacity="1.00"/>
<stop offset="100%" stop-color="rgb(196,196,196)" stop-opacity="1.00"/>
</linearGradient>
<marker id="arrow" refX="15" refY="0" markerWidth="12" markerHeight="12" viewBox="0 -5 10 10" >
<path d="M0,-5L10,0L0,5" style="fill:red" />
</marker>
<marker id="graphArrow" refX="9" refY="0" markerWidth="12" markerHeight="12" viewBox="0 -5 10 10" >
<path d="M0,-5L10,0L0,5" style="fill:black" />
</marker>
</defs>
<rect x="25" y="0" width="975" height="670" style="fill:url(#wardleyGradient)" />
<g transform="translate(0,700) rotate(270)">
<g font-family="&quot;Helvetica Neue&quot;,Helvetica,Arial,sans-serif" font-size="13px"> >
<line x1="30" y1="25" x2="700" y2="25" stroke="black" stroke-width="1" marker-end="url(#graphArrow)" />
<line x1="700" y1="198" x2="30" y2="198" stroke="#b8b8b8" stroke-dasharray="2,2" />
<line x1="700" y1="425" x2="30" y2="425" stroke="#b8b8b8" stroke-dasharray="2,2" />
<line x1="700" y1="725" x2="30" y2="725" stroke="#b8b8b8" stroke-dasharray="2,2" />
<text x="40" y="15" text-anchor="start" >Invisible</text>
<text x="660" y="15" text-anchor="end" >Visible</text>
<text x="380" y="15" text-anchor="middle" font-weight="bold" >Value Chain</text>
</g>
</g>
<line x1="25" y1="670" x2="1000" y2="670" stroke="black" stroke-width="1" marker-end="url(#graphArrow)" />
<g font-family="&quot;Helvetica Neue&quot;,Helvetica,Arial,sans-serif" font-size="13px" font-style="italic" >
<text x="35" y="15" font-style="normal" font-size="11px" font-weight="bold" >Uncharted</text>
<text x="980" y="15" font-style="normal" font-size="11px" font-weight="bold" text-anchor="end" >Industrialised</text>
<text x="30" y="685" >Gensesis</text>
<text x="280" y="685" >Custom-Build</text>
<text x="530" y="685" >Product</text>
<text x="530" y="697" >(+rental)</text>
<text x="780" y="685" >Commodity</text>
<text x="780" y="697" >(+utility)</text>
<text x="1000" y="690" text-anchor="end" font-weight="bold" font-style="normal" >Evolution</text>
</g>
<g font-family="Consolas, Lucida Console, monospace" font-weight="14px" font-size="13px" >
<g id="components">
<g transform="translate(580,108)">
<rect x="0" y="0" width="205" height="68" rx="15" ry="15" fill="rgb(252, 237, 190)" opacity="0.8" stroke="rgb(250,216,120)" stroke-opacity="0.7" stroke-width="5px" />
</g>
<g transform="translate(249,324)">
<rect x="0" y="0" width="195" height="135" rx="15" ry="15" fill="rgb(217, 190, 206)" opacity="0.8" stroke="rgb(200,159,182)" stroke-opacity="0.7" stroke-width="5px" />
</g>
<g transform="translate(619,554)">
<rect x="0" y="0" width="322" height="108" fill="rgb(170, 185, 215)" opacity="0.8" stroke="rgb(119,159,229)" stroke-opacity="0.7" stroke-width="5px" />
</g>
</g>
<g id="links">
<line x1="805" y1="324" x2="824" y2="419" stroke="grey" stroke-width="1" />
<line x1="805" y1="324" x2="366" y2="385" stroke="grey" stroke-width="1" />
<line x1="366" y1="385" x2="707" y2="608" stroke="grey" stroke-width="1" />
<line x1="785" y1="34" x2="619" y2="142" stroke="grey" stroke-width="1" />
<line x1="619" y1="142" x2="785" y2="183" stroke="grey" stroke-width="1" />
<line x1="619" y1="142" x2="814" y2="250" stroke="grey" stroke-width="1" />
<line x1="619" y1="142" x2="805" y2="324" stroke="grey" stroke-width="1" />
<line x1="639" y1="34" x2="619" y2="142" stroke="grey" stroke-width="1" />
</g>
<g id="annotations">
<g transform="translate(814,250)">
<text x="10" y="10" >Tea</text>
<circle cx="0" cy="0" r="5" stroke-width="1" stroke="black" fill="white" />
</g>
<g transform="translate(805,324)">
<text x="10" y="10" >Hot Water</text>
<circle cx="0" cy="0" r="5" stroke-width="1" stroke="black" fill="white" />
</g>
<g transform="translate(824,419)">
<text x="10" y="10" >Water</text>
<circle cx="0" cy="0" r="5" stroke-width="1" stroke="black" fill="white" />
</g>
<g transform="translate(366,385)">
<text x="-57" y="4" >Kettle</text>
<circle cx="0" cy="0" r="5" stroke-width="1" stroke="black" fill="white" />
</g>
<g transform="translate(707,608)">
<text x="-27" y="20" >Power</text>
<circle cx="0" cy="0" r="5" stroke-width="1" stroke="black" fill="white" />
</g>
<g transform="translate(785,34)">
<text x="0" y="0" font-weight="14px" font-size="14px" text-anchor="middle" >Public</text>
</g>
<g transform="translate(619,142)">
<text x="19" y="-4" >Cup of Tea</text>
<circle cx="0" cy="0" r="5" stroke-width="1" stroke="black" fill="white" />
</g>
<g transform="translate(639,34)">
<text x="0" y="0" font-weight="14px" font-size="14px" text-anchor="middle" >Business</text>
</g>
<g transform="translate(785,183)">
<text x="10" y="10" >Cup</text>
<circle cx="0" cy="0" r="5" stroke-width="1" stroke="black" fill="white" />
</g>
</g>
</g>
</svg>
