<?xml version="1.0"?>
<!-- Generated by SVGo -->
<svg width="1500" height="900"
     xmlns="http://www.w3.org/2000/svg"
     xmlns:xlink="http://www.w3.org/1999/xlink">
<rect x="0" y="0" width="1500" height="900" style="fill:white" />
<defs>
<linearGradient id="wardleyGradient" x1="0%" y1="0%" x2="100%" y2="0%">
<stop offset="0%" stop-color="rgb(196,196,196)" stop-opacity="1.00"/>
<stop offset="30%" stop-color="rgb(255,255,255)" stop-opacity="1.00"/>
<stop offset="70%" stop-color="rgb(255,255,255)" stop-opacity="1.00"/>
<stop offset="100%" stop-color="rgb(196,196,196)" stop-opacity="1.00"/>
</linearGradient>
<marker id="arrow" refX="15" refY="0" markerWidth="12" markerHeight="12" viewBox="0 -5 10 10" >
<path d="M0,-5L10,0L0,5" style="fill:red" />
</marker>
<marker id="graphArrow" refX="9" refY="0" markerWidth="12" markerHeight="12" viewBox="0 -5 10 10" >
<path d="M0,-5L10,0L0,5" style="fill:black" />
</marker>
</defs>
<rect x="25" y="0" width="1475" height="870" style="fill:url(#wardleyGradient)" />
<g transform="translate(0,900) rotate(270)">
<g font-family="&quot;Helvetica Neue&quot;,Helvetica,Arial,sans-serif" font-size="13px"> >
<line x1="30" y1="25" x2="900" y2="25" stroke="black" stroke-width="1" marker-end="url(#graphArrow)" />
<line x1="900" y1="285" x2="30" y2="285" stroke="#b8b8b8" stroke-dasharray="2,2" />
<line x1="900" y1="625" x2="30" y2="625" stroke="#b8b8b8" stroke-dasharray="2,2" />
<line x1="900" y1="1075" x2="30" y2="1075" stroke="#b8b8b8" stroke-dasharray="2,2" />
<text x="40" y="15" text-anchor="start" >Invisible</text>
<text x="860" y="15" text-anchor="end" >Visible</text>
<text x="480" y="15" text-anchor="middle" font-weight="bold" >Value Chain</text>
</g>
</g>
<line x1="25" y1="870" x2="1500" y2="870" stroke="black" stroke-width="1" marker-end="url(#graphArrow)" />
<g font-family="&quot;Helvetica Neue&quot;,Helvetica,Arial,sans-serif" font-size="13px" font-style="italic" >
<text x="35" y="15" font-style="normal" font-size="11px" font-weight="bold" >Uncharted</text>
<text x="1480" y="15" font-style="normal" font-size="11px" font-weight="bold" text-anchor="end" >Industrialised</text>
<text x="30" y="885" >Gensesis</text>
<text x="405" y="885" >Custom-Build</text>
<text x="780" y="885" >Product</text>
<text x="780" y="897" >(+rental)</text>
<text x="1155" y="885" >Commodity</text>
<text x="1155" y="897" >(+utility)</text>
<text x="1500" y="890" text-anchor="end" font-weight="bold" font-style="normal" >Evolution</text>
</g>
<g font-family="Consolas, Lucida Console, monospace" font-weight="14px" font-size="13px" >
<title>Tea Shop</title>
<g id="teamtopologies">
<g transform="translate(924,718)">
<rect x="0" y="0" width="487" height="140" fill="rgb(170, 185, 215)" opacity="0.8" stroke="rgb(119,159,229)" stroke-opacity="0.7" stroke-width="5px" />
</g>
<g transform="translate(364,420)">
<rect x="0" y="0" width="295" height="175" rx="15" ry="15" fill="rgb(217, 190, 206)" opacity="0.8" stroke="rgb(200,159,182)" stroke-opacity="0.7" stroke-width="5px" />
</g>
<g transform="translate(865,140)">
<rect x="0" y="0" width="310" height="88" rx="15" ry="15" fill="rgb(252, 237, 190)" opacity="0.8" stroke="rgb(250,216,120)" stroke-opacity="0.7" stroke-width="5px" />
</g>
</g>
<g id="links">
<line x1="954" y1="44" x2="924" y2="184" stroke="grey" stroke-width="1" />
<line x1="1175" y1="44" x2="924" y2="184" stroke="grey" stroke-width="1" />
<line x1="939" y1="499" x2="1057" y2="788" stroke="red" stroke-width="1" />
<line x1="939" y1="499" x2="1337" y2="788" stroke="red" stroke-width="1" />
<line x1="924" y1="184" x2="1175" y2="237" stroke="grey" stroke-width="1" />
<line x1="924" y1="184" x2="1219" y2="324" stroke="grey" stroke-width="1" />
<line x1="924" y1="184" x2="1205" y2="420" stroke="grey" stroke-width="1" />
<line x1="1205" y1="420" x2="1234" y2="543" stroke="grey" stroke-width="1" />
<line x1="1205" y1="420" x2="541" y2="499" stroke="grey" stroke-width="1" />
<line x1="1205" y1="420" x2="939" y2="499" stroke="red" stroke-width="1" />
<line x1="541" y1="499" x2="939" y2="499" stroke-dasharray="5 5" stroke="red" stroke-width="1" marker-end="url(#arrow)" />
<line x1="541" y1="499" x2="1057" y2="788" stroke="grey" stroke-width="1" />
<line x1="541" y1="499" x2="1337" y2="788" stroke="red" stroke-width="1" />
<line x1="1057" y1="788" x2="1337" y2="788" stroke-dasharray="5 5" stroke="red" stroke-width="1" marker-end="url(#arrow)" />
</g>
<g id="components">
<g transform="translate(1175,237)">
<text x="10" y="10" >Cup</text>
<circle cx="0" cy="0" r="5" stroke-width="1" stroke="black" fill="white" />
</g>
<g transform="translate(1219,324)">
<text x="10" y="10" >Tea</text>
<circle cx="0" cy="0" r="5" stroke-width="1" stroke="black" fill="white" />
</g>
<g transform="translate(1205,420)">
<text x="10" y="10" >Hot Water</text>
<circle cx="0" cy="0" r="5" stroke-width="1" stroke="black" fill="white" />
</g>
<g transform="translate(1234,543)">
<text x="10" y="10" >Water</text>
<circle cx="0" cy="0" r="5" stroke-width="1" stroke="black" fill="white" />
</g>
<g transform="translate(541,499)">
<text x="-57" y="4" >Kettle</text>
<circle cx="0" cy="0" r="5" stroke-width="1" stroke="black" fill="white" />
</g>
<g transform="translate(1057,788)">
<text x="-27" y="20" >Power</text>
<circle cx="0" cy="0" r="5" stroke-width="1" stroke="black" fill="white" />
</g>
<g transform="translate(954,44)">
<text x="0" y="0" font-weight="14px" font-size="14px" text-anchor="middle" >Business</text>
</g>
<g transform="translate(1175,44)">
<text x="0" y="0" font-weight="14px" font-size="14px" text-anchor="middle" >Public</text>
</g>
<g transform="translate(939,499)">
<text x="16" y="7" fill="red" >Kettle</text>
<circle cx="0" cy="0" r="5" stroke-width="1" stroke="red" fill="white" />
</g>
<g transform="translate(1337,788)">
<text x="-12" y="21" fill="red" >Power</text>
<circle cx="0" cy="0" r="5" stroke-width="1" stroke="red" fill="white" />
</g>
<g transform="translate(924,184)">
<text x="19" y="-4" >Cup of Tea</text>
<circle cx="0" cy="0" r="5" stroke-width="1" stroke="black" fill="white" />
</g>
</g>
<g id="annotations">
<g transform="translate(747,499)">
<circle cx="0" cy="0" r="15" fill="white" stroke="#595959" stroke-width="2" />
<text x="0" y="5" font-weight="14px" font-size="14px" text-anchor="middle" >1</text>
</g>
<g transform="translate(1190,805)">
<circle cx="0" cy="0" r="15" fill="white" stroke="#595959" stroke-width="2" />
<text x="0" y="5" font-weight="14px" font-size="14px" text-anchor="middle" >1</text>
</g>
<g transform="translate(1278,455)">
<circle cx="0" cy="0" r="15" fill="white" stroke="#595959" stroke-width="2" />
<text x="0" y="5" font-weight="14px" font-size="14px" text-anchor="middle" >2</text>
</g>
<g transform="translate(54,350)">
<rect x="-14" y="-14" width="459" height="57" stroke="#595959" stroke-width="1" fill="#FFFFFF" />
<text x="0" y="0" text-decoration="underline" >Annotations:</text>
<text x="0" y="18" > 1. Standardising power allows Kettles to evolve faster</text>
<text x="0" y="36" > 2. Hot water is obvious and well known</text>
</g>
</g>
</g>
</svg>
