<svg width="100%" height="100%" viewBox="0 0 1100 900" xmlns="http://www.w3.org/2000/svg" xmlns:xlink="http://www.w3.org/1999/xlink" preserveAspectRatio="xMidYMid meet">
    <rect x="0" y="0" width="1100" height="900" fill="rgb(128,128,128)" fill-opacity="1.0"></rect>
    <defs>
        <linearGradient id="wardleyGradient" x1="0%" y1="0%" x2="100%" y2="0%">
            <stop offset="0%" stop-color="rgb(196,196,196)"></stop>
            <stop offset="30%" stop-color="rgb(255,255,255)"></stop>
            <stop offset="70%" stop-color="rgb(255,255,255)"></stop>
            <stop offset="100%" stop-color="rgb(196,196,196)"></stop>
        </linearGradient>
        <marker id="arrow" refX="15" refY="0" markerWidth="12" markerHeight="12" viewBox="0 -5 10 10">
            <path d="M0,-5L10,0L0,5" fill="rgb(255,0,0)"></path>
        </marker>
        <marker id="graphArrow" refX="9" refY="0" markerWidth="12" markerHeight="12" viewBox="0 -5 10 10">
            <path d="M0,-5L10,0L0,5" fill="rgb(0,0,0)"></path>
        </marker>
    </defs>
    <rect x="30" y="50" width="1040" height="800" style="fill:url(#wardleyGradient)"></rect>
    <g transform=" translate(30,850) rotate(270)">
        <line x1="0" y1="0" x2="800" y2="0" stroke-width="1" marker-end="url(#graphArrow)" stroke="rgb(0,0,0)" stroke-opacity="1.0"></line>
        <line x1="0" y1="180" x2="800" y2="180" stroke-width="1" stroke-dasharray="2 2" stroke="rgb(184,184,184)" stroke-opacity="1.0"></line>
        <line x1="0" y1="416" x2="800" y2="416" stroke-width="1" stroke-dasharray="2 2" stroke="rgb(184,184,184)" stroke-opacity="1.0"></line>
        <line x1="0" y1="728" x2="800" y2="728" stroke-width="1" stroke-dasharray="2 2" stroke="rgb(184,184,184)" stroke-opacity="1.0"></line>
        <text x="5" y="-10" text-anchor="start">Invisible</text>
        <text x="795" y="-10" text-anchor="end">Visible</text>
        <text x="400" y="-10" font-weight="bold" text-anchor="middle">Value Chain</text>
    </g>
    <line x1="30" y1="850" x2="1070" y2="850" marker-end="url(#graphArrow)" stroke="rgb(0,0,0)" stroke-opacity="1.0"></line>
    <text x="37" y="65" font-weight="bold" font-size="11px" text-anchor="start">Uncharted</text>
    <text x="1065" y="65" font-weight="bold" font-size="11px" text-anchor="end">Industrialised</text>
    <text x="30" y="865">Genesis</text>
    <text x="210" y="865">Custom-Built</text>
    <text x="446" y="865">Product
(+rental)</text>
    <text x="758" y="865">Commodity
(+utility)</text>
    <text x="1070" y="865" font-weight="bold" text-anchor="end">Evolution</text>
    <g transform=" translate(685,90)">
        <text x="0" y="0" font-size="14px" text-anchor="middle">Business</text>
    </g>
    <g transform=" translate(841,90)">
        <text x="0" y="0" font-size="14px" text-anchor="middle">Public</text>
    </g>
    <g transform=" translate(217,178)">
        <rect x="0" y="0" width="800" height="64" fill="rgb(252,237,190)" fill-opacity="0.9" stroke="rgb(250,216,120)" stroke-opacity="0.9" stroke-width="5px" ry="15" rx="15"></rect>
    </g>
    <g transform=" translate(664,706)">
        <rect x="0" y="0" width="343" height="128" fill="rgb(170,185,215)" fill-opacity="0.9" stroke="rgb(119,159,229)" stroke-opacity="0.7" stroke-width="5px"></rect>
    </g>
    <g transform=" translate(789,114)">
        <rect x="0" y="0" width="176" height="376" fill="rgb(236,210,177)" fill-opacity="0.9" stroke="rgb(210,149,84)" stroke-opacity="0.7" stroke-width="5px" ry="35" rx="35"></rect>
    </g>
    <g transform=" translate(342,130)">
        <rect x="0" y="0" width="104" height="480" fill="rgb(170,185,215)" fill-opacity="0.9" stroke="rgb(119,159,229)" stroke-opacity="0.7" stroke-width="5px" ry="15" rx="15"></rect>
    </g>
    <line x1="758" y1="770" x2="955" y2="770" stroke-width="1" stroke-dasharray="5 5" marker-end="url(#arrow)" stroke="rgb(255,0,0)" stroke-opacity="1.0"></line>
    <line x1="664" y1="218" x2="841" y2="266" stroke-width="1" stroke="rgb(128,128,128)" stroke-opacity="1.0"></line>
    <line x1="664" y1="218" x2="872" y2="346" stroke-width="1" stroke="rgb(128,128,128)" stroke-opacity="1.0"></line>
    <line x1="674" y1="506" x2="955" y2="770" stroke-width="1" stroke="rgb(255,0,0)" stroke-opacity="1.0"></line>
    <line x1="394" y1="506" x2="674" y2="506" stroke-width="1" stroke-dasharray="5 5" marker-end="url(#arrow)" stroke="rgb(255,0,0)" stroke-opacity="1.0"></line>
    <line x1="394" y1="506" x2="758" y2="770" stroke-width="1" stroke="rgb(128,128,128)" stroke-opacity="1.0"></line>
    <line x1="394" y1="506" x2="955" y2="770" stroke-width="1" stroke="rgb(255,0,0)" stroke-opacity="1.0"></line>
    <line x1="685" y1="90" x2="664" y2="218" stroke-width="1" stroke="rgb(128,128,128)" stroke-opacity="1.0"></line>
    <line x1="674" y1="506" x2="758" y2="770" stroke-width="1" stroke="rgb(255,0,0)" stroke-opacity="1.0"></line>
    <line x1="862" y1="434" x2="674" y2="506" stroke-width="1" stroke="rgb(255,0,0)" stroke-opacity="1.0"></line>
    <line x1="862" y1="434" x2="394" y2="506" stroke-width="1" stroke="rgb(128,128,128)" stroke-opacity="1.0"></line>
    <line x1="862" y1="434" x2="882" y2="546" stroke-width="1" stroke="rgb(128,128,128)" stroke-opacity="1.0"></line>
    <line x1="664" y1="218" x2="862" y2="434" stroke-width="1" stroke="rgb(128,128,128)" stroke-opacity="1.0"></line>
    <line x1="841" y1="90" x2="664" y2="218" stroke-width="1" stroke="rgb(128,128,128)" stroke-opacity="1.0"></line>
    <g transform=" translate(664,218)">
        <circle cx="0" cy="0" r="5" fill="rgb(255,255,255)" fill-opacity="1.0" stroke="rgb(0,0,0)" stroke-opacity="1.0" stroke-width="1"></circle>
        <text x="19" y="-4" fill="rgb(0,0,0)" fill-opacity="1.0">Cup of Tea</text>
    </g>
    <g transform=" translate(862,434)">
        <circle cx="0" cy="0" r="5" fill="rgb(255,255,255)" fill-opacity="1.0" stroke="rgb(0,0,0)" stroke-opacity="1.0" stroke-width="1"></circle>
        <text x="10" y="10" fill="rgb(0,0,0)" fill-opacity="1.0">Hot Water</text>
    </g>
    <g transform=" translate(955,770)">
        <circle cx="0" cy="0" r="5" fill="rgb(255,255,255)" fill-opacity="1.0" stroke="rgb(255,0,0)" stroke-opacity="1.0" stroke-width="1"></circle>
        <text x="-12" y="21" fill="rgb(255,0,0)" fill-opacity="1.0">Power</text>
    </g>
    <g transform=" translate(758,770)">
        <circle cx="0" cy="0" r="20" fill="rgb(68,68,68)" fill-opacity="1.0" stroke="rgb(68,68,68)" stroke-opacity="1.0" stroke-width="1"></circle>
        <circle cx="0" cy="0" r="5" fill="rgb(255,255,255)" fill-opacity="1.0" stroke="rgb(0,0,0)" stroke-opacity="1.0" stroke-width="1"></circle>
        <text x="-29" y="30" fill="rgb(0,0,0)" fill-opacity="1.0">Power</text>
    </g>
    <g transform=" translate(674,506)">
        <circle cx="0" cy="0" r="20" fill="rgb(170,165,169)" fill-opacity="1.0" stroke="rgb(214,214,214)" stroke-opacity="1.0" stroke-width="1"></circle>
        <circle cx="0" cy="0" r="5" fill="rgb(255,255,255)" fill-opacity="1.0" stroke="rgb(255,0,0)" stroke-opacity="1.0" stroke-width="1"></circle>
        <text x="22" y="9" fill="rgb(255,0,0)" fill-opacity="1.0">Kettle</text>
    </g>
    <g transform=" translate(841,266)">
        <circle cx="0" cy="0" r="14" fill="rgb(246,72,22)" fill-opacity="1.0" stroke-width="1"></circle>
        <circle cx="0" cy="0" r="5" fill="rgb(255,255,255)" fill-opacity="1.0" stroke="rgb(0,0,0)" stroke-opacity="1.0" stroke-width="1"></circle>
        <text x="19" y="-4" fill="rgb(0,0,0)" fill-opacity="1.0">Cup</text>
    </g>
    <g transform=" translate(394,506)">
        <circle cx="0" cy="0" r="20" fill="rgb(214,214,214)" fill-opacity="1.0" stroke="rgb(0,0,0)" stroke-opacity="1.0" stroke-width="1"></circle>
        <circle cx="0" cy="0" r="5" fill="rgb(255,255,255)" fill-opacity="1.0" stroke="rgb(0,0,0)" stroke-opacity="1.0" stroke-width="1"></circle>
        <text x="-73" y="4" fill="rgb(0,0,0)" fill-opacity="1.0">Kettle</text>
    </g>
    <g transform=" translate(872,346)">
        <circle cx="0" cy="0" r="5" fill="rgb(255,255,255)" fill-opacity="1.0" stroke="rgb(0,0,0)" stroke-opacity="1.0" stroke-width="1"></circle>
        <text x="10" y="10" fill="rgb(0,0,0)" fill-opacity="1.0">Tea</text>
    </g>
    <g transform=" translate(882,546)">
        <circle cx="0" cy="0" r="5" fill="rgb(255,255,255)" fill-opacity="1.0" stroke="rgb(0,0,0)" stroke-opacity="1.0" stroke-width="1"></circle>
        <text x="10" y="10" fill="rgb(0,0,0)" fill-opacity="1.0">Water</text>
    </g>
</svg>