<?xml version="1.0"?>
<!-- Generated by SVGo -->
<svg
     width="100%"
     height="100%"
     class="wardley-map"
     preserveAspectRatio="xMidYMid meet"
     viewBox="0 0 1050 1050"
     xmlns="http://www.w3.org/2000/svg"
     xmlns:xlink="http://www.w3.org/1999/xlink">
<rect x="0" y="0" width="1050" height="1050" style="fill:grey" />
<defs>
<linearGradient id="wardleyGradient" x1="0%" y1="0%" x2="100%" y2="0%">
<stop offset="0%" stop-color="rgb(196,196,196)" stop-opacity="1.00"/>
<stop offset="30%" stop-color="rgb(255,255,255)" stop-opacity="1.00"/>
<stop offset="70%" stop-color="rgb(255,255,255)" stop-opacity="1.00"/>
<stop offset="100%" stop-color="rgb(196,196,196)" stop-opacity="1.00"/>
</linearGradient>
<marker id="arrow" refX="15" refY="0" markerWidth="12" markerHeight="12" viewBox="0 -5 10 10" >
<path d="M0,-5L10,0L0,5" style="fill:red" />
</marker>
<marker id="graphArrow" refX="9" refY="0" markerWidth="12" markerHeight="12" viewBox="0 -5 10 10" >
<path d="M0,-5L10,0L0,5" style="fill:black" />
</marker>
<marker id="hexagon" refX="0" refY="0" markerWidth="15" markerHeight="15" >
<polygon points="723,314 543,625 183,625 3,314 183,2 543,2 723,314" fill="white" stroke="black" stroke-width="2" />
</marker>
</defs>
<rect x="25" y="25" width="1000" height="1000" style="fill:url(#wardleyGradient)" />
<g transform="translate(25,1025) rotate(270)">
<g font-family="Helvetica,Arial,sans-serif" font-size="13px"> >
<line x1="0" y1="0" x2="1000" y2="0" stroke="black" stroke-width="1" marker-end="url(#graphArrow)" />
<line x1="0" y1="173" x2="1000" y2="173" stroke="#b8b8b8" stroke-dasharray="2,2" />
<line x1="0" y1="400" x2="1000" y2="400" stroke="#b8b8b8" stroke-dasharray="2,2" />
<line x1="0" y1="700" x2="1000" y2="700" stroke="#b8b8b8" stroke-dasharray="2,2" />
<text x="5" y="-10" text-anchor="start" >Invisible</text>
<text x="995" y="-10" text-anchor="end" >Visible</text>
<text x="500" y="-10" text-anchor="middle" font-weight="bold" >Value Chain</text>
</g>
</g>
<line x1="25" y1="1025" x2="1025" y2="1025" stroke="black" stroke-width="1" marker-end="url(#graphArrow)" />
<g font-family="Helvetica,Arial,sans-serif" font-size="13px" font-style="italic" >
<text x="32" y="40" font-style="normal" font-size="11px" font-weight="bold" >Uncharted</text>
<text x="1020" y="40" font-style="normal" font-size="11px" font-weight="bold" text-anchor="end" >Industrialised</text>
<text x="25" y="1040" >Genesis</text>
<text x="198" y="1040" >Custom-Built</text>
<text x="425" y="1040" >Product&#xA;(+rental)</text>
<text x="725" y="1040" >Commodity&#xA;(+utility)</text>
<text x="1025" y="1040" text-anchor="end" font-weight="bold" font-style="normal" >Evolution</text>
</g>
<g font-family="Consolas, Lucida Console, monospace" font-weight="14px" font-size="13px" >
<line x1="455" y1="375" x2="125" y2="375" stroke="red" stroke-width="1" />
<line x1="455" y1="375" x2="455" y2="375" stroke-dasharray="5 5" stroke="red" stroke-width="1" marker-end="url(#arrow)" />
<line x1="125" y1="725" x2="125" y2="725" stroke-dasharray="5 5" stroke="red" stroke-width="1" marker-end="url(#arrow)" />
<line x1="545" y1="825" x2="455" y2="825" stroke="red" stroke-width="1" />
<line x1="455" y1="375" x2="125" y2="375" stroke="red" stroke-width="1" />
<line x1="455" y1="375" x2="125" y2="375" stroke="red" stroke-width="1" />
<g id="8">
<g transform="translate(455,375)">
<text x="22" y="35" fill="red" >Kettle</text>
<circle cx="0" cy="0" r="20" fill="#AAA5A9" stroke="#D6D6D6" class="element, buyComponent" />
<circle cx="0" cy="0" r="5" stroke-width="1" stroke="red" fill="white" class="element, component" />
</g>
</g>
<g id="3">
<g transform="translate(755,805)">
<text x="19" y="78" >Cup</text>
<circle cx="0" cy="0" r="14" fill="rgb(246,72,22)" class="element, dataProductComponent" />
<circle cx="0" cy="0" r="5" stroke-width="1" stroke="black" fill="white" class="element, component" />
</g>
</g>
<g id="5">
<g transform="translate(545,825)">
<text x="-9223372036854775808" y="80" >Hot Water</text>
<circle cx="0" cy="0" r="5" stroke-width="1" stroke="black" fill="white" class="element, component" />
</g>
</g>
<g id="2">
<g transform="translate(815,635)">
<text x="19" y="61" >Cup of Tea</text>
<circle cx="0" cy="0" r="5" stroke-width="1" stroke="black" fill="white" class="element, component" />
</g>
</g>
<g id="7">
<g transform="translate(455,375)">
<text x="-73" y="35" >Kettle</text>
<circle cx="0" cy="0" r="20" fill="#D6D6D6" stroke="#000000" class="element, buildComponent" />
<circle cx="0" cy="0" r="5" stroke-width="1" stroke="black" fill="white" class="element, component" />
</g>
</g>
<g id="9">
<g transform="translate(125,725)">
<text x="-29" y="70" >Power</text>
<circle cx="0" cy="0" r="20" fill="#444444" stroke="#444444" class="element, outsourceComponent" />
<circle cx="0" cy="0" r="5" stroke-width="1" stroke="black" fill="white" class="element, component" />
</g>
</g>
<g id="10">
<g transform="translate(125,725)">
<text x="-12" y="70" fill="red" >Power</text>
<circle cx="0" cy="0" r="5" stroke-width="1" stroke="red" fill="white" class="element, component" />
</g>
</g>
<g id="4">
<g transform="translate(655,835)">
<text x="-9223372036854775808" y="81" >Tea</text>
<circle cx="0" cy="0" r="5" stroke-width="1" stroke="black" fill="white" class="element, component" />
</g>
</g>
<g id="6">
<g transform="translate(405,845)">
<text x="-9223372036854775808" y="82" >Water</text>
<circle cx="0" cy="0" r="5" stroke-width="1" stroke="black" fill="white" class="element, component" />
</g>
</g>
</g>
</svg>
