<?xml version="1.0"?>
<!-- Generated by SVGo -->
<svg
     width="100%"
     height="100%"
     class="wardley-map"
     preserveAspectRatio="xMidYMid meet"
     viewBox="0 0 1050 1050"
     xmlns="http://www.w3.org/2000/svg"
     xmlns:xlink="http://www.w3.org/1999/xlink">
<rect x="0" y="0" width="1050" height="1050" style="fill:grey" />
<defs>
<linearGradient id="wardleyGradient" x1="0%" y1="0%" x2="100%" y2="0%">
<stop offset="0%" stop-color="rgb(196,196,196)" stop-opacity="1.00"/>
<stop offset="30%" stop-color="rgb(255,255,255)" stop-opacity="1.00"/>
<stop offset="70%" stop-color="rgb(255,255,255)" stop-opacity="1.00"/>
<stop offset="100%" stop-color="rgb(196,196,196)" stop-opacity="1.00"/>
</linearGradient>
<marker id="arrow" refX="15" refY="0" markerWidth="12" markerHeight="12" viewBox="0 -5 10 10" >
<path d="M0,-5L10,0L0,5" style="fill:red" />
</marker>
<marker id="graphArrow" refX="9" refY="0" markerWidth="12" markerHeight="12" viewBox="0 -5 10 10" >
<path d="M0,-5L10,0L0,5" style="fill:black" />
</marker>
<marker id="hexagon" refX="0" refY="0" markerWidth="15" markerHeight="15" >
<polygon points="723,314 543,625 183,625 3,314 183,2 543,2 723,314" fill="white" stroke="black" stroke-width="2" />
</marker>
</defs>
<rect x="25" y="25" width="1000" height="1000" style="fill:url(#wardleyGradient)" />
<g transform="translate(25,1025) rotate(270)">
<g font-family="Helvetica,Arial,sans-serif" font-size="13px"> >
<line x1="0" y1="0" x2="1000" y2="0" stroke="black" stroke-width="1" marker-end="url(#graphArrow)" />
<line x1="0" y1="173" x2="1000" y2="173" stroke="#b8b8b8" stroke-dasharray="2,2" />
<line x1="0" y1="400" x2="1000" y2="400" stroke="#b8b8b8" stroke-dasharray="2,2" />
<line x1="0" y1="700" x2="1000" y2="700" stroke="#b8b8b8" stroke-dasharray="2,2" />
<text x="5" y="-10" text-anchor="start" >Invisible</text>
<text x="995" y="-10" text-anchor="end" >Visible</text>
<text x="500" y="-10" text-anchor="middle" font-weight="bold" >Value Chain</text>
</g>
</g>
<line x1="25" y1="1025" x2="1025" y2="1025" stroke="black" stroke-width="1" marker-end="url(#graphArrow)" />
<g font-family="Helvetica,Arial,sans-serif" font-size="13px" font-style="italic" >
<text x="32" y="40" font-style="normal" font-size="11px" font-weight="bold" >Uncharted</text>
<text x="1020" y="40" font-style="normal" font-size="11px" font-weight="bold" text-anchor="end" >Industrialised</text>
<text x="25" y="1040" >Genesis</text>
<text x="198" y="1040" >Custom-Built</text>
<text x="425" y="1040" >Product&#xA;(+rental)</text>
<text x="725" y="1040" >Commodity&#xA;(+utility)</text>
<text x="1025" y="1040" text-anchor="end" font-weight="bold" font-style="normal" >Evolution</text>
</g>
<g font-family="Consolas, Lucida Console, monospace" font-weight="14px" font-size="13px" >
<g id="1">
<g transform="translate(805,75)">
<text x="0" y="0" font-weight="14px" font-size="14px" text-anchor="middle" >Public</text>
</g>
</g>
<g id="0">
<g transform="translate(655,75)">
<text x="0" y="0" font-weight="14px" font-size="14px" text-anchor="middle" >Business</text>
</g>
</g>
<g transform="translate(205,185)">
<rect x="0" y="0" width="770" height="80" rx="15" ry="15" fill="rgb(252, 237, 190)" opacity="0.9" stroke="rgb(250,216,120)" stroke-opacity="0.9" stroke-width="5px" />
</g>
<g transform="translate(325,125)">
<rect x="0" y="0" width="100" height="600" rx="15" ry="15" fill="rgb(170, 185, 215)" opacity="0.95" stroke="rgb(119,159,229)" stroke-opacity="0.7" stroke-width="5px" />
</g>
<g transform="translate(755,105)">
<rect x="0" y="0" width="170" height="470" rx="35" ry="35" fill="rgb(236, 210, 177)" opacity="0.9" stroke="rgb(210,149,84)" stroke-opacity="0.7" stroke-width="5px" />
</g>
<g transform="translate(635,845)">
<rect x="0" y="0" width="330" height="160" fill="rgb(170, 185, 215)" opacity="0.95" stroke="rgb(119,159,229)" stroke-opacity="0.7" stroke-width="5px" />
</g>
<line x1="635" y1="235" x2="825" y2="505" stroke="grey" stroke-width="1" />
<line x1="825" y1="505" x2="845" y2="645" stroke="grey" stroke-width="1" />
<line x1="825" y1="505" x2="375" y2="595" stroke="grey" stroke-width="1" />
<line x1="825" y1="505" x2="645" y2="595" stroke="red" stroke-width="1" />
<line x1="635" y1="235" x2="835" y2="395" stroke="grey" stroke-width="1" />
<line x1="645" y1="595" x2="915" y2="925" stroke="red" stroke-width="1" />
<line x1="645" y1="595" x2="725" y2="925" stroke="red" stroke-width="1" />
<line x1="725" y1="925" x2="915" y2="925" stroke-dasharray="5 5" stroke="red" stroke-width="1" marker-end="url(#arrow)" />
<line x1="375" y1="595" x2="725" y2="925" stroke="grey" stroke-width="1" />
<line x1="635" y1="235" x2="805" y2="295" stroke="grey" stroke-width="1" />
<line x1="805" y1="75" x2="635" y2="235" stroke="grey" stroke-width="1" />
<line x1="375" y1="595" x2="645" y2="595" stroke-dasharray="5 5" stroke="red" stroke-width="1" marker-end="url(#arrow)" />
<line x1="375" y1="595" x2="915" y2="925" stroke="red" stroke-width="1" />
<line x1="655" y1="75" x2="635" y2="235" stroke="grey" stroke-width="1" />
<g id="3">
<g transform="translate(805,295)">
<text x="19" y="-4" >Cup</text>
<circle cx="0" cy="0" r="14" fill="rgb(246,72,22)" class="element, dataProductComponent" />
<circle cx="0" cy="0" r="5" stroke-width="1" stroke="black" fill="white" class="element, component" />
</g>
</g>
<g id="10">
<g transform="translate(915,925)">
<text x="-12" y="21" fill="red" >Power</text>
<circle cx="0" cy="0" r="5" stroke-width="1" stroke="red" fill="white" class="element, component" />
</g>
</g>
<g id="4">
<g transform="translate(835,395)">
<text x="10" y="10" >Tea</text>
<circle cx="0" cy="0" r="5" stroke-width="1" stroke="black" fill="white" class="element, component" />
</g>
</g>
<g id="5">
<g transform="translate(825,505)">
<text x="10" y="10" >Hot Water</text>
<circle cx="0" cy="0" r="5" stroke-width="1" stroke="black" fill="white" class="element, component" />
</g>
</g>
<g id="2">
<g transform="translate(635,235)">
<text x="19" y="-4" >Cup of Tea</text>
<circle cx="0" cy="0" r="5" stroke-width="1" stroke="black" fill="white" class="element, component" />
</g>
</g>
<g id="7">
<g transform="translate(375,595)">
<text x="-73" y="4" >Kettle</text>
<circle cx="0" cy="0" r="20" fill="#D6D6D6" stroke="#000000" class="element, buildComponent" />
<circle cx="0" cy="0" r="5" stroke-width="1" stroke="black" fill="white" class="element, component" />
</g>
</g>
<g id="6">
<g transform="translate(845,645)">
<text x="10" y="10" >Water</text>
<circle cx="0" cy="0" r="5" stroke-width="1" stroke="black" fill="white" class="element, component" />
</g>
</g>
<g id="8">
<g transform="translate(645,595)">
<text x="22" y="9" fill="red" >Kettle</text>
<circle cx="0" cy="0" r="20" fill="#AAA5A9" stroke="#D6D6D6" class="element, buyComponent" />
<circle cx="0" cy="0" r="5" stroke-width="1" stroke="red" fill="white" class="element, component" />
</g>
</g>
<g id="9">
<g transform="translate(725,925)">
<text x="-29" y="30" >Power</text>
<circle cx="0" cy="0" r="20" fill="#444444" stroke="#444444" class="element, outsourceComponent" />
<circle cx="0" cy="0" r="5" stroke-width="1" stroke="black" fill="white" class="element, component" />
</g>
</g>
</g>
</svg>
