<?xml version="1.0" encoding="UTF-8" standalone="no"?>
<!DOCTYPE svg PUBLIC "-//W3C//DTD SVG 1.1//EN"
 "http://www.w3.org/Graphics/SVG/1.1/DTD/svg11.dtd">
<!-- Generated by graphviz version 2.43.0 (0)
 -->
<!-- Title: sample Pages: 1 -->
<svg width="241pt" height="548pt"
 viewBox="0.00 0.00 240.99 548.00" xmlns="http://www.w3.org/2000/svg" xmlns:xlink="http://www.w3.org/1999/xlink">
<g id="graph0" class="graph" transform="scale(1 1) rotate(0) translate(4 544)">
<title>sample</title>
<polygon fill="white" stroke="transparent" points="-4,4 -4,-544 236.99,-544 236.99,4 -4,4"/>
<!-- 0 -->
<g id="node1" class="node">
<title>0</title>
<ellipse fill="none" stroke="black" cx="51.35" cy="-522" rx="51.19" ry="18"/>
<text text-anchor="middle" x="51.35" y="-518.3" font-family="Times,serif" font-size="14.00">business</text>
</g>
<!-- 1 -->
<g id="node2" class="node">
<title>1</title>
<ellipse fill="none" stroke="black" cx="105.35" cy="-450" rx="56.59" ry="18"/>
<text text-anchor="middle" x="105.35" y="-446.3" font-family="Times,serif" font-size="14.00">cup of tea</text>
</g>
<!-- 0&#45;&gt;1 -->
<g id="edge1" class="edge">
<title>0&#45;&gt;1</title>
<path fill="none" stroke="black" d="M64.14,-504.41C70.7,-495.91 78.83,-485.37 86.13,-475.91"/>
<polygon fill="black" stroke="black" points="88.93,-478.01 92.26,-467.96 83.39,-473.74 88.93,-478.01"/>
</g>
<!-- 3 -->
<g id="node4" class="node">
<title>3</title>
<ellipse fill="none" stroke="black" cx="50.35" cy="-378" rx="27.1" ry="18"/>
<text text-anchor="middle" x="50.35" y="-374.3" font-family="Times,serif" font-size="14.00">cup</text>
</g>
<!-- 1&#45;&gt;3 -->
<g id="edge2" class="edge">
<title>1&#45;&gt;3</title>
<path fill="none" stroke="black" d="M92.31,-432.41C85.33,-423.53 76.62,-412.44 68.94,-402.67"/>
<polygon fill="black" stroke="black" points="71.46,-400.21 62.53,-394.51 65.96,-404.54 71.46,-400.21"/>
</g>
<!-- 4 -->
<g id="node5" class="node">
<title>4</title>
<ellipse fill="none" stroke="black" cx="105.35" cy="-306" rx="27" ry="18"/>
<text text-anchor="middle" x="105.35" y="-302.3" font-family="Times,serif" font-size="14.00">tea</text>
</g>
<!-- 1&#45;&gt;4 -->
<g id="edge3" class="edge">
<title>1&#45;&gt;4</title>
<path fill="none" stroke="black" d="M105.35,-431.87C105.35,-407.67 105.35,-363.21 105.35,-334.39"/>
<polygon fill="black" stroke="black" points="108.85,-334.19 105.35,-324.19 101.85,-334.19 108.85,-334.19"/>
</g>
<!-- 5 -->
<g id="node6" class="node">
<title>5</title>
<ellipse fill="none" stroke="black" cx="160.35" cy="-234" rx="55.79" ry="18"/>
<text text-anchor="middle" x="160.35" y="-230.3" font-family="Times,serif" font-size="14.00">hot water</text>
</g>
<!-- 1&#45;&gt;5 -->
<g id="edge4" class="edge">
<title>1&#45;&gt;5</title>
<path fill="none" stroke="black" d="M110.74,-431.71C118.14,-407.69 131.64,-362.78 141.35,-324 146.49,-303.44 151.46,-279.99 155.03,-262.32"/>
<polygon fill="black" stroke="black" points="158.54,-262.63 157.06,-252.14 151.67,-261.27 158.54,-262.63"/>
</g>
<!-- 2 -->
<g id="node3" class="node">
<title>2</title>
<ellipse fill="none" stroke="black" cx="159.35" cy="-522" rx="38.99" ry="18"/>
<text text-anchor="middle" x="159.35" y="-518.3" font-family="Times,serif" font-size="14.00">public</text>
</g>
<!-- 2&#45;&gt;1 -->
<g id="edge5" class="edge">
<title>2&#45;&gt;1</title>
<path fill="none" stroke="black" d="M146.82,-504.76C140.17,-496.14 131.86,-485.36 124.42,-475.73"/>
<polygon fill="black" stroke="black" points="127.06,-473.41 118.18,-467.63 121.51,-477.69 127.06,-473.41"/>
</g>
<!-- 6 -->
<g id="node7" class="node">
<title>6</title>
<ellipse fill="none" stroke="black" cx="127.35" cy="-162" rx="37.89" ry="18"/>
<text text-anchor="middle" x="127.35" y="-158.3" font-family="Times,serif" font-size="14.00">water</text>
</g>
<!-- 5&#45;&gt;6 -->
<g id="edge6" class="edge">
<title>5&#45;&gt;6</title>
<path fill="none" stroke="black" d="M152.36,-216.05C148.55,-207.97 143.9,-198.12 139.66,-189.11"/>
<polygon fill="black" stroke="black" points="142.69,-187.34 135.26,-179.79 136.36,-190.33 142.69,-187.34"/>
</g>
<!-- 7 -->
<g id="node8" class="node">
<title>7</title>
<ellipse fill="none" stroke="black" cx="193.35" cy="-90" rx="37.89" ry="18"/>
<text text-anchor="middle" x="193.35" y="-86.3" font-family="Times,serif" font-size="14.00">kettle</text>
</g>
<!-- 5&#45;&gt;7 -->
<g id="edge7" class="edge">
<title>5&#45;&gt;7</title>
<path fill="none" stroke="black" d="M165.09,-215.87C167.91,-205.51 171.47,-192.03 174.35,-180 179.27,-159.38 184.25,-135.93 187.87,-118.28"/>
<polygon fill="black" stroke="black" points="191.38,-118.61 189.94,-108.12 184.52,-117.22 191.38,-118.61"/>
</g>
<!-- 8 -->
<g id="node9" class="node">
<title>8</title>
<ellipse fill="none" stroke="black" cx="193.35" cy="-18" rx="39.79" ry="18"/>
<text text-anchor="middle" x="193.35" y="-14.3" font-family="Times,serif" font-size="14.00">power</text>
</g>
<!-- 7&#45;&gt;8 -->
<g id="edge8" class="edge">
<title>7&#45;&gt;8</title>
<path fill="none" stroke="black" d="M193.35,-71.7C193.35,-63.98 193.35,-54.71 193.35,-46.11"/>
<polygon fill="black" stroke="black" points="196.85,-46.1 193.35,-36.1 189.85,-46.1 196.85,-46.1"/>
</g>
</g>
</svg>
